# xmcd
#
# Track frame offsets:
#	150
#	14571
#	28034
#	44065
#	64433
#	77244
#	93398
#	106006
#
# Disc length: 1666 seconds
# Revision: 0
# Processed by: cddbd v1.5.2PL0 Copyright (c) Steve Scherf et al.
# Submitted via: dBpowerAMP V12.0
#
DISCID=68068008
DTITLE=The Dillion James Band - Blues Roots Reggae
DYEAR=2014
DGENRE=Blues
TTITLE0=Dyin' To Find Out 
TTITLE1=Between A Rock And A Hard Place
TTITLE2=Prepaid Bad Luck
TTITLE3=Higher Being
TTITLE4=Party Comin' On
TTITLE5=Get On Yo Funk
TTITLE6=You Got Me Thinkin'
TTITLE7=Helping Hand
EXTD=
EXTT0=
EXTT1=
EXTT2=
EXTT3=
EXTT4=
EXTT5=
EXTT6=
EXTT7=
PLAYORDER=
